<svg width="1749" height="1823" xmlns="http://www.w3.org/2000/svg" xmlns:xlink="http://www.w3.org/1999/xlink" xml:space="preserve" overflow="hidden"><g transform="translate(-920 -129)"><g><g><g><path d="M533.042 787.448 629.958 787.448 629.958 884.365 533.042 884.365Z" stroke="#000000" stroke-width="20.6449" fill="#E8B4B8" transform="matrix(1 0 0 1 1181 129)"/><path d="M846.809 753.527 734.144 496.698C691.743 399.781 696.588 289.539 747.47 196.256L797.14 106.608C801.985 98.1281 798.351 86.0135 789.871 81.1677 785.025 78.7448 778.968 77.5333 772.91 81.1677L730.509 101.762C562.117 182.93 436.125 331.94 384.032 511.235L314.979 743.835 314.979 743.835C168.393 776.545 50.8812 841.963 50.8812 903.748 50.8812 947.36 105.397 988.55 187.776 1018.84 199.891 1023.68 213.217 1022.47 224.12 1017.62L277.424 993.396 267.732 1029.74C266.521 1035.8 270.155 1043.07 276.212 1044.28 276.212 1044.28 276.212 1044.28 276.212 1044.28 375.552 1066.08 477.315 1073.35 579.077 1066.08 880.73 1041.85 1109.7 971.589 1109.7 891.633 1112.12 801.985 1000.66 771.699 846.809 753.527ZM678.417 879.519 678.417 896.479C678.417 917.074 662.668 932.823 642.073 932.823L520.927 932.823C500.332 932.823 484.583 917.074 484.583 896.479L484.583 879.519C419.165 875.884 359.803 863.77 293.173 845.598L314.979 751.104C375.552 768.065 426.433 778.968 484.583 782.602L484.583 775.333C484.583 754.738 500.332 738.99 520.927 738.99L642.073 738.99C662.668 738.99 678.417 754.738 678.417 775.333L678.417 782.602C735.355 778.968 791.082 771.699 846.809 760.796L869.827 855.289C806.831 867.404 742.624 875.884 678.417 879.519Z" stroke="#000000" stroke-width="20.6449" fill="#E8B4B8" transform="matrix(1 0 0 1 1181 129)"/></g></g></g><g><g><g><path d="M439.833 396.635C439.833 413.915 425.696 428.052 408.417 428.052L377 428.052C359.721 428.052 345.583 413.915 345.583 396.635L345.583 380.927 78.5416 380.927 78.5416 600.844C78.5416 618.123 92.6791 632.26 109.958 632.26L675.458 632.26C692.737 632.26 706.875 618.123 706.875 600.844L706.875 380.927 439.833 380.927 439.833 396.635Z" stroke="#000000" stroke-width="20.6576" fill="#4A5568" transform="matrix(1 0 0 1 1915 1065)"/><path d="M675.458 192.427 518.375 192.427 518.375 141.375C518.375 110.744 494.027 86.3958 463.396 86.3958L322.021 86.3958C291.39 86.3958 267.042 110.744 267.042 141.375L267.042 192.427 109.958 192.427C92.6791 192.427 78.5416 206.565 78.5416 223.844L78.5416 349.51 345.583 349.51 345.583 333.802 439.833 333.802 439.833 349.51 706.875 349.51 706.875 223.844C706.875 206.565 692.737 192.427 675.458 192.427M314.167 192.427 314.167 141.375C314.167 136.662 317.308 133.521 322.021 133.521L463.396 133.521C468.108 133.521 471.25 136.662 471.25 141.375L471.25 192.427 314.167 192.427Z" stroke="#000000" stroke-width="20.6576" fill="#4A5568" transform="matrix(1 0 0 1 1915 1065)"/></g></g></g></g></svg>
